<svg id="Layer_1" enable-background="new 0 0 512 512" height="512" viewBox="0 0 512 512" width="512" xmlns="http://www.w3.org/2000/svg"><g><path d="m512 231.501v-91.252h-91.252v30.626h-79.623v-79.623h30.626v-91.252h-91.252v30.626h-189.247v-30.626h-91.252v91.252h30.626v189.246h-30.626v91.252h91.252v-30.626h79.623v79.623h-30.626v91.253h91.252v-30.626h189.246v30.626h91.253v-91.252h-30.626v-189.247zm-61.252-61.252h31.252v31.252h-31.252zm-140.249-140.249h31.252v31.252h-31.252zm-280.499 0h31.252v31.252h-31.252zm31.252 311.751h-31.252v-31.252h31.252zm30-30.626v-30.626h-30.626v-189.247h30.626v-30.626h189.246v30.626h30.626v79.623h-79.623v-30.626h-91.252v91.252h30.626v79.623h-79.623zm250.499-.626v31.252h-31.252v-31.252zm-61.252-30v30.626h-79.623v-79.623h30.626v-30.626h79.623v79.623zm-110.25-78.998v-31.252h31.252v31.252zm31.252 280.499h-31.252v-31.252h31.252zm280.499 0h-31.252v-31.252h31.252zm-30.626-61.252h-30.626v30.626h-189.247v-30.626h-30.626v-79.623h79.623v30.626h91.252v-91.252h-30.626v-79.623h79.623v30.626h30.626v189.246z"/></g></svg>